<svg width="512" height="512" viewBox="0 0 512 512" xmlns="http://www.w3.org/2000/svg">
  <defs>
    <radialGradient id="bg" cx="50%" cy="38%" r="65%">
      <stop offset="0%" stop-color="#38bdf8"/>
      <stop offset="40%" stop-color="#2563eb"/>
      <stop offset="100%" stop-color="#0f172a"/>
    </radialGradient>
    <linearGradient id="glow" x1="0%" y1="0%" x2="100%" y2="100%">
      <stop offset="0%" stop-color="#fff" stop-opacity="0.55"/>
      <stop offset="100%" stop-color="#fff" stop-opacity="0.05"/>
    </linearGradient>
  </defs>
  <rect width="512" height="512" rx="160" fill="url(#bg)"/>
  <rect x="80" y="88" width="352" height="336" rx="140" fill="url(#glow)" opacity="0.55"/>
  <g fill="none" stroke="#fff" stroke-linecap="round" stroke-width="26">
    <path d="M170 220c22-38 66-62 106-62s84 24 106 62"/>
    <path d="M202 284c0 14-10 24-24 24s-24-10-24-24 10-24 24-24 24 10 24 24zm156 0c0 14-10 24-24 24s-24-10-24-24 10-24 24-24 24 10 24 24z"/>
    <path d="M176 340c30 40 66 62 104 62s74-22 104-62" opacity="0.9"/>
  </g>
  <text x="50%" y="442" text-anchor="middle" font-family="Arial, Helvetica, sans-serif" font-size="52" fill="#e0f2fe" font-weight="600" letter-spacing="4">FRV</text>
</svg>
